<svg xmlns="http://www.w3.org/2000/svg" viewBox="0 0 197 78"><defs><style>.cls-1{fill:#333;stroke:#fff;stroke-width:5px;}.cls-2{isolation:isolate;}.cls-3{fill:#fff;}</style></defs><g id="レイヤー_2" data-name="レイヤー 2"><g id="レイヤー_1-2" data-name="レイヤー 1"><g id="長方形_13" data-name="長方形 13"><rect width="197" height="78" rx="10"/><rect class="cls-1" x="2.5" y="2.5" width="192" height="73" rx="7.5"/></g><g id="see_more" data-name="see more" class="cls-2"><g class="cls-2"><path class="cls-3" d="M50.66,54.07a5.09,5.09,0,0,1-3.75-1.5,5.11,5.11,0,0,1-2-4.22c0-.34-.13-1.85-.13-2V43.1l.22-.21h.6c1,0,3.18.09,3.18.09l.22.12v4.39c0,.26.08,1.21.08,1.47l.13.25a2.24,2.24,0,0,0,2.07,1.12,2,2,0,0,0,1.85-1.12c0-.13.08-.77.08-1V46.85c0-3.49-1-3.87-3.39-6.24a40.75,40.75,0,0,1-2.89-3.23,11.72,11.72,0,0,1-2.28-4.86V30.67c0-2.88.48-5.63,3.23-7,.26-.13,1-.39,1-.39h2.8s1.07.39,1.46.47a5,5,0,0,1,1.76.9,6.65,6.65,0,0,1,1.46,3.75v4.21l-.25.22H52.33v-4a9,9,0,0,0-.34-1,1.31,1.31,0,0,0-1.33-.73c-.61,0-1.68.6-1.68,1.38v3.22a4.51,4.51,0,0,1,.08.52c.52,1.85,1.94,3,3.27,4.21,2.28,2.24,4.65,4.86,5.17,8.13,0,.09.12.69.12.82v1.51c0,2.62-.21,4.13-2.1,6a4.19,4.19,0,0,1-2.33,1.11c-.21,0-1.54.13-1.8.13Z"/><path class="cls-3" d="M61.07,52.78c.08-5.72.13-11.44.13-17.12,0-1.07.08-10,0-11.09v-.78l.21-.21h1.47c2.19-.09,7.44,0,7.44,0l.21.09a7.09,7.09,0,0,1,.13.9v.21c0,.65,0,2.11,0,2.11l-.22.22H70c-1.33,0-2.58-.09-3.87,0a.67.67,0,0,0-.69.43c0,2.41-.21,5.29-.17,7.62v.94a1,1,0,0,0,.91.35c.9,0,1.85-.13,2.75-.17.21,0,.34,0,.43.34v.73c0,.26,0,.9,0,.9,0,.22-.13,1.34-.13,1.55s-.51.3-.73.35c-.77,0-1.55-.09-2.28-.09-.47,0-.69,0-.9.34,0,.22-.13,1.08-.09,1.3,0,.77-.13,5.42-.13,6.62,0,0,0,.56,0,.65v.77a.47.47,0,0,0,.34.3l5.25-.09.08,3.66s-.12.22-.21.22a.65.65,0,0,0-.22,0H70.1c-.47,0-3.74-.17-4.17-.17l-4.52,0c-.34,0-.34-.43-.34-.64Z"/><path class="cls-3" d="M74.1,52.78c.09-5.72.13-11.44.13-17.12,0-1.07.09-10,0-11.09v-.78l.22-.21H76c2.19-.09,7.44,0,7.44,0l.22.09a7.09,7.09,0,0,1,.13.9v.21c0,.65,0,2.11,0,2.11l-.21.22h-.43c-1.34,0-2.58-.09-3.87,0a.66.66,0,0,0-.69.43c0,2.41-.22,5.29-.17,7.62v.94a.93.93,0,0,0,.9.35c.9,0,1.85-.13,2.75-.17.22,0,.35,0,.43.34v.73c0,.26,0,.9,0,.9,0,.22-.13,1.34-.13,1.55s-.52.3-.73.35c-.78,0-1.55-.09-2.28-.09-.48,0-.69,0-.91.34a11.34,11.34,0,0,0-.08,1.3c0,.77-.13,5.42-.13,6.62,0,0,0,.56,0,.65v.77a.49.49,0,0,0,.34.3l5.25-.09.09,3.66s-.13.22-.22.22a.57.57,0,0,0-.21,0h-.35c-.47,0-3.74-.17-4.17-.17l-4.51,0c-.35,0-.35-.43-.35-.64Z"/><path class="cls-3" d="M95.31,51.92c0-9.33.08-18.71.08-28.21l.26-.09h5c.39,0,.44.43.44.77v.35c0,.34.64,4,1.16,6.49.08.39.51,4.78,1.24,5.29.61-.6.82-2.88.82-3.52.26-2.11,1-9.12,1.64-9.29a51.42,51.42,0,0,1,5.59.12l.21.22c.18,1.07.13,19.79.13,28.13l-.13,1.68-.08.13h-.35c.05,0-2.23-.13-3.31-.13-.43-.17-.47-.52-.47-.9,0-5.34.21-10.67.21-16.05,0-.6,0-1.81-.21-1.72s-.35.82-.43,1.16c-.56,3.27-1,6.71-1.59,10,0-.12-1,7.53-1.25,7.4s-1.51.09-1.72.09c-.91,0-.91-2.75-1-3.87-.42-3.53-.9-6.93-1.46-10.46a21,21,0,0,0-.34-2.15c-.09-.64-.13-3-.78-3l-.13.55c0,12.91.13,14.89.13,18.8l-.25.09H95.87c-.05,0-.43,0-.48-.22Z"/><path class="cls-3" d="M120.6,54.2a2.83,2.83,0,0,1-2-.73A6.92,6.92,0,0,1,116.34,50a43.84,43.84,0,0,1-.73-6.76v-.34c0-1.46.13-8.26.13-9.68,0-3.57.78-9.68,6.15-9.68,3.62,0,5.08,2.07,5.59,4.61a3.58,3.58,0,0,1,.22,1.07v15.7l-.22,3.4c-.25.47-.25,1.07-.51,1.55-1.21,2.45-2.41,4.34-5.42,4.34Zm1.16-3.87c1.12,0,1.47-1.16,1.47-2,0-.52.12-2.8.12-3.27,0-1.33.13-7.74.13-9.16V29A1.55,1.55,0,0,0,122,27.4h-.13a3.65,3.65,0,0,0-.81.26c-.13,0-.61.56-.74.69a1.31,1.31,0,0,0-.13.39c0,.73-.12,3.74-.12,4.47V49A1.68,1.68,0,0,0,121.76,50.33Z"/><path class="cls-3" d="M131.4,51.62c0-1.55.13-14.84.13-16.43,0-3.27-.13-6.49-.13-9.76,0-.56-.17-1.64.56-1.81,2,0,4,0,6.06.13a7.39,7.39,0,0,1,2.71.77c2,1.59,2.24,4.05,2.24,6.37,0,2.79-.34,4.86-2.45,7.35v.35a3.44,3.44,0,0,1,1.81,2.32,61.44,61.44,0,0,1,.64,9.42,7.94,7.94,0,0,0,.73,2.88c-.17.61-.21.52-1,.52-1.07,0-2,0-3.14,0-.38-.35-.77-.69-.77-3.06,0-1,0-2.45,0-3.91,0-2.88.13-6.67-2.84-6.67a.52.52,0,0,0-.56.56c0,.64-.13,3.91-.13,4.6,0,.48.13,4.39.13,4.86,0,1.29.18,2.46.18,3.44-.31.78-2.84.26-3.88.26l-.21-.21A11.35,11.35,0,0,1,131.4,51.62Zm7.1-16c.08-1.93.21-3.83.21-5.76,0-.82-.26-2.28-1.25-2.5h-1.59l-.3.35v8.69l.22.21C136.82,36.65,137.81,36.82,138.5,35.66Z"/><path class="cls-3" d="M147.14,52.78c.09-5.72.13-11.44.13-17.12,0-1.07.09-10,0-11.09v-.78l.21-.21H149c2.2-.09,7.44,0,7.44,0l.22.09a7.09,7.09,0,0,1,.13.9v.21c0,.65,0,2.11,0,2.11l-.22.22h-.43c-1.33,0-2.58-.09-3.87,0a.66.66,0,0,0-.69.43c0,2.41-.21,5.29-.17,7.62v.94a.94.94,0,0,0,.9.35c.91,0,1.85-.13,2.76-.17.21,0,.34,0,.43.34v.73c0,.26,0,.9,0,.9,0,.22-.13,1.34-.13,1.55s-.52.3-.73.35c-.78,0-1.55-.09-2.28-.09-.48,0-.69,0-.9.34,0,.22-.13,1.08-.09,1.3,0,.77-.13,5.42-.13,6.62,0,0,0,.56,0,.65v.77a.49.49,0,0,0,.35.3l5.25-.09L157,53.6s-.13.22-.21.22a.65.65,0,0,0-.22,0h-.34c-.48,0-3.75-.17-4.18-.17l-4.51,0c-.35,0-.35-.43-.35-.64Z"/></g></g></g></g></svg>