<svg xmlns="http://www.w3.org/2000/svg" viewBox="0 0 704.68 186.81"><defs><style>.cls-1{isolation:isolate;}.cls-2{fill:#fff;}</style></defs><g id="レイヤー_2" data-name="レイヤー 2"><g id="レイヤー_1-2" data-name="レイヤー 1"><g id="Portfolio" class="cls-1"><g class="cls-1"><path class="cls-2" d="M13.36,180.13H23.51v.75s-1.24.49-1.24,1.23c-.74.75-1.49,2-2.72,2a68.11,68.11,0,0,1-12.37.74H2.72c-2-1.48-1.48-5.19-1.48-7.17,0-1.49-.5-6.19-.5-6.68V81.16c0-2-.74-12.87-.74-14.85V14.1c.74-.74,2-3.46,2.72-3.46h3v46c0,2.23.74,13.12.74,14.85v89.82c0,1.24.5,5.69.5,6.68v3.46c0,2.73.25,5.45,3.46,7.67ZM11.88,168c0-1.49-.5-6.19-.5-6.68V71.51c0-2-.74-12.87-.74-14.85V2.23A4.47,4.47,0,0,1,13.36,1H48c4,0,9.16.49,12.87,2.47,2,.75,3.46,2.73,4.7,4C72.75,15.34,75,25.73,75,36.13c0,6.68.5,13.85-.24,20.53,0,.5-.5,7.67-.5,8.42,0,.49-.74,5.19-.74,5.93-.74,4.71-2.72,9.9-4,14.36A20.1,20.1,0,0,0,68,88.58a1.92,1.92,0,0,1-.49,1.24c-2.72,2.72-5.94,6.68-9.15,7.92a29,29,0,0,1-10.4,2c-2,0-11.38.74-13.11.74l-.74.49v70.28s-1.24.49-1.24,1.23c-.74.75-1.49,2-2.72,2a68.11,68.11,0,0,1-12.37.74H13.36C11.38,173.7,11.88,170,11.88,168ZM33.4,77.69c0,2.48,2.73,3.22,4.7,3.22,7.43,0,12.38-2.72,13.86-9.9.5-5.44.5-13.11.5-18.31,0-7.91,0-13.11-.5-21.77C51.22,24.5,44.79,22,38.85,22c-1.49,0-4-.74-4.7,2,0,7.67-.75,45-.75,53Zm5.69-42.06V27c4,.25,7.43,1.49,7.92,4.21.5,8.66.5,13.61.5,21.52,0,4.95,0,12.38-.5,17.82V70a7.17,7.17,0,0,1-5.44,5.7c.25-4.71.25-9.65.25-13.37,0-7.91,0-13.11-.5-21.77A8.36,8.36,0,0,0,39.09,35.63Zm0,73.74v-4c5.45,0,9.65,0,13.12-.74a14.75,14.75,0,0,1-4.45,2.72A29.85,29.85,0,0,1,39.09,109.37Z"/><path class="cls-2" d="M126.68,181.87a37.94,37.94,0,0,0,7.67-.75,27.6,27.6,0,0,1-17.56,5.69h-5.45c-3.71,0-8.66-1.23-11.38-4.2-6.18-5.45-10.89-11.63-13.11-20-2.72-13.12-3.47-25-4.21-38.85v-2c0-8.41.74-47.51.74-55.67,0-12.13,1.49-29.2,9.16-41.33-3.47,10.64-4.21,22.52-4.21,31.43,0,4,0,15.59-.25,27.46s-.49,24-.49,28.21v2.23c.74,14.6,1.73,27.22,4.21,39.84,2.47,9.4,7.67,16.33,14.84,22.51l-.49-.25c3.71,4,10.14,5.7,15.09,5.7Zm-5.44-5c-3.71,0-8.66-1.24-11.38-4.21-6.19-5.44-10.89-11.63-13.12-20-2.72-13.12-3.46-25-4.2-38.85v-2c0-8.41.74-47.51.74-55.67C93.28,35.63,97.73.49,128.66.49c20.79,0,29.2,11.88,32.17,26.48.74,1.24,1.24,5.44,1.24,6.19v90.31L160.83,143c-1.48,2.72-1.48,6.18-3,8.91-6.93,14.1-13.86,25-31.18,25Zm6.68-22.27c6.43,0,8.41-6.68,8.41-11.63,0-3,.75-16.09.75-18.81,0-7.67.74-44.54.74-52.7V31.67c0-4.2-3.47-8.91-8.41-8.91h-.75c-1.23,0-4.7,1.49-4.7,1.49-.74,0-3.46,3.22-4.2,4a7.39,7.39,0,0,0-.75,2.22c0,4.21-.74,21.53-.74,25.74v91.05C119,151.93,124,154.65,127.92,154.65Zm-4-120.5V30.93l.5-.5c.49-.49.49-1.23.24-1.23a34.39,34.39,0,0,1,4-1.49,4,4,0,0,1,4.21,4V71.51c0,4-.25,16.58-.49,27-.25,11.13-.25,22-.25,25.73,0,1.24,0,5-.25,8.91s-.49,8.41-.49,9.9c0,2.72-.75,6.68-3.47,6.68h-1.48c.24-5.2.74-13.36.74-15.59,0-7.67.74-44.54.74-52.7V41.57A9.38,9.38,0,0,0,124,34.15Z"/><path class="cls-2" d="M183.35,179.39a61.5,61.5,0,0,1,7.42.5l6.93.49v2.48c-1.74,4.45-16.33,1.48-22.27,1.48l-1.24-1.24c-.5-.74-.74-8.66-.74-11.13,0-8.91.74-85.37.74-94.52,0-18.81-.74-37.37-.74-56.17,0-3.22-1-9.4,3.21-10.39h1.74v.49c0,9.4,0,19,.24,28.46s.5,18.31.5,27.71c0,4.21-.25,28.21-.5,47.76-.24,21.27-.24,42.31-.24,46.76,0,2.72.49,12.37,1.48,13.86Zm0-17.32c0-8.91.74-85.36.74-94.52,0-18.81-.74-37.36-.74-56.17,0-3.21-1-9.4,3.21-10.39,11.63,0,23.26-.25,34.89.74,4,.5,12.12,2,15.59,4.46,11.63,9.15,12.87,23.25,12.87,36.62,0,16.08-2,28-14.11,42.31v2c4.7,3.21,8.66,5.69,10.39,13.36,2.23,9.65,3.72,36.12,3.72,54.19,0,6.68,2.72,12.62,4.2,16.58-1,3.46-1.24,3-5.69,3-6.19,0-11.38.24-18.06-.25-2.23-2-4.46-4-4.46-17.57,0-5.94.25-14.1.25-22.52,0-16.58.74-38.35-16.33-38.35a3,3,0,0,0-3.22,3.22c0,3.71-.74,22.51-.74,26.47,0,2.72.74,25.24.74,28,0,7.43,1,14.11,1,19.8-1.73,4.45-16.33,1.48-22.27,1.48l-1.23-1.23C183.59,172.46,183.35,164.54,183.35,162.07Zm40.82-91.8c.5-11.13,1.24-22,1.24-33.15,0-4.71-1.49-13.12-7.18-14.36h-9.15l-1.73,2v50L208.58,76C214.52,76,220.21,77,224.17,70.27ZM211.31,111.1c.24-4.21.24-7.92.24-10.39,10.15,1.73,9.65,19.54,9.65,33.15,0,4.46-.24,8.91-.24,13.12v9.4c0,15.84,3.71,19.3,7.42,22.52,4.7.24,10.64.24,15.09.24l.74,2c-1,3.47-1.23,3-5.69,3-6.18,0-11.38.25-18.06-.25-2.23-2-4.45-4-4.45-17.56,0-5.94.24-14.11.24-22.52C216.25,132.63,216.5,118.77,211.31,111.1Zm9.15-74c0,8.16-.25,16.57-.74,24.74,0,2.23-.5,4.7-.5,6.93A6.43,6.43,0,0,1,214.77,71c.25-7.91.74-15.83.74-24,0-3.21-.74-8.41-3.22-11.63V27a29,29,0,0,0,5.2.74C219.47,28.7,220.46,34.15,220.46,37.12Z"/><path class="cls-2" d="M278.36,175.43c3.46,5.45,9.4,5.45,11.63,5.45h7.42v.24c0,.5-.74,3.22-.74,4l-.49.74H280.09c-1.48,0-5.44,0-6.68-2v-4.7c0-1.48.74-10.64.74-12.12,0-7.92,1.24-43.8,1.24-51.22V99c0-.49.74-4,.74-4.45,0-8.91,1.24-48.74,1.24-57.4v-2c0-1.24,0-3.22-2-3.22H258.07c-.74,0-2-.74-2.72-.74-.5,0-1.24-1.49-1.24-1.49V11.88s.74-1.49,1.24-1.49h3.71V27.22l5.2-.5A9.32,9.32,0,0,0,268,27h14.35v.25c0,4-.25,17.57-.5,28.45-.24,12.13-.74,24.5-.74,29a5.75,5.75,0,0,0-.25,1,13.19,13.19,0,0,0-.49,3.47V105.9c0,3.71-.25,14.35-.5,25-.24,11.14-.74,22.27-.74,26.23,0,.25-.25,3-.49,5.69s-.25,5.69-.25,6.44Zm4.95-6.18c0-1.49.74-10.64.74-12.13,0-7.92,1.24-43.79,1.24-51.22V89.08c0-.5.74-4,.74-4.46,0-8.9,1.24-48.74,1.24-57.4v-2c0-1.24,0-3.22-2-3.22H268c-.74,0-2-.74-2.72-.74-.5,0-1.24-1.49-1.24-1.49V2s.74-1.49,1.24-1.49h3.46c4.45,0,43.3.75,48,.75H328.1c.74,0,2.72.74,3.46.74l.49.74v19.8H310.77l-.74.74-.74,2v84.62c0,5.45-2,51.22-2,56.66v4.71c0,.49-.74,3.21-.74,4l-.5.75H290c-1.49,0-5.44,0-6.68-2ZM314.24,32.41V27.47h7.92v4.94Z"/><path class="cls-2" d="M363.72,179.89c0,2.47-.24,4.94-2.22,4.94h-21c-.74,0-1.48-2.22-1.48-3,0-11.14,3-93,2.47-107.89,0-4,.25-7.91.25-11.38,0-7.92.74-43,.74-51l.75-.5h4c0,5.45-.25,11.39-.25,16.09-.25,10.88-.25,21.52-.25,25.48v5.2c0,2-.25,4.45-.25,6.43.25,9.41-.74,44.79-1.48,72.75-.5,16.58-1,37.12-1,41.32,0,2,3.22,1.49,6.43,1.49Zm-13.36-4.95c-.74,0-1.48-2.23-1.48-3,0-11.14,3-93,2.47-107.88,0-4,.25-7.92.25-11.39,0-7.91.74-43.05.74-51l.74-.49H409.5l1.24,1.23V21l-1.24,1.24H377.09l-.75,1.48c0,4.21-1.23,46.27-1.23,52,0,1.48,0,3.46,2,3.46h23.25V97.49H375.6l-.49,1.24c-.25,7.67-1.49,29.94-1.49,67.79,0,3.22.74,8.42-2.23,8.42Zm29.2-67.55c0-1,.25-2.23.25-3.22v-1.73h10.64v5Zm1.73-75.22v-5h19.55v3.71l-1.24,1.24Z"/><path class="cls-2" d="M456,181.87a38,38,0,0,0,7.67-.75,27.63,27.63,0,0,1-17.57,5.69h-5.44c-3.71,0-8.66-1.23-11.38-4.2-6.19-5.45-10.89-11.63-13.12-20-2.72-13.12-3.46-25-4.2-38.85v-2c0-8.41.74-47.51.74-55.67,0-12.13,1.48-29.2,9.15-41.33-3.46,10.64-4.2,22.52-4.2,31.43,0,4,0,15.59-.25,27.46s-.5,24-.5,28.21v2.23c.75,14.6,1.74,27.22,4.21,39.84,2.47,9.4,7.67,16.33,14.85,22.51l-.5-.25c3.71,4,10.15,5.7,15.1,5.7Zm-5.44-5c-3.72,0-8.67-1.24-11.39-4.21-6.18-5.44-10.88-11.63-13.11-20-2.72-13.12-3.47-25-4.21-38.85v-2c0-8.41.74-47.51.74-55.67C422.61,35.63,427.07.49,458,.49c20.78,0,29.2,11.88,32.17,26.48.74,1.24,1.23,5.44,1.23,6.19v90.31L490.17,143c-1.49,2.72-1.49,6.18-3,8.91-6.93,14.1-13.86,25-31.18,25Zm6.68-22.27c6.43,0,8.41-6.68,8.41-11.63,0-3,.74-16.09.74-18.81,0-7.67.74-44.54.74-52.7V31.67c0-4.2-3.46-8.91-8.41-8.91H458c-1.24,0-4.7,1.49-4.7,1.49-.75,0-3.47,3.22-4.21,4a7.45,7.45,0,0,0-.74,2.22c0,4.21-.74,21.53-.74,25.74v91.05C448.35,151.93,453.3,154.65,457.26,154.65Zm-4-120.5V30.93l.49-.5c.5-.49.5-1.23.25-1.23a33.69,33.69,0,0,1,4-1.49,4,4,0,0,1,4.2,4V71.51c0,4-.24,16.58-.49,27-.25,11.13-.25,22-.25,25.73,0,1.24,0,5-.24,8.91s-.5,8.41-.5,9.9c0,2.72-.74,6.68-3.46,6.68h-1.49c.25-5.2.74-13.36.74-15.59,0-7.67.75-44.54.75-52.7V41.57A9.4,9.4,0,0,0,453.3,34.15Z"/><path class="cls-2" d="M509.22,180.38c5.69.25,15.83.5,21.52.5,10.15,0,20.79-.5,29.45-1,0,3-1.49,4.2-4.7,4.45a384.75,384.75,0,0,1-51.72,1.24l-.74-6.19c0-1.24-1.24-35.88-1.73-49.24,0-2.47,1.23-44.54,1-59.88,0-9.4-1-49-1-57.65a2.24,2.24,0,0,1,2.47-2l2.48.25c0,5.69.24,13.11.49,19.54.25,12.38.5,25.24.5,29.94.24,11.63-.5,38.85-.75,52.21,0,4.21-.24,7.43-.24,7.92.49,13.36,1.73,48.25,1.73,49.49Zm3.71-10.89c0-1.23-1.24-35.87-1.74-49.24,0-2.47,1.24-44.53,1-59.88,0-9.4-1-49-1-57.65a2.25,2.25,0,0,1,2.48-2l18.56.5,2,2V9.15c.24,2.73-.5,16.09-.5,18.56l2.23,122.73a2.69,2.69,0,0,0,2,2l28.45-1c.75,0,2.23,2,2.23,2.72l1.48,14.6c.5,4-1,5.45-4.7,5.69a382.9,382.9,0,0,1-51.71,1.24Z"/><path class="cls-2" d="M584.68,176.92l4,4H602v3.71l-1.48,1.23h-19.8l-1.24-1.23-.74-7.43L579,148l.49-74.48V13.86c0-.75,1.24-2.73,2-2.73h3V63.59l-.49,74.48-.25,29.69Zm4-9.65.25-29.2.49-74.48V4c0-.74,1.24-2.72,2-2.72L611.16,0c1.23,0,2,1.24,2.72,2.47v9.9l-.75,8.17-.24,66.8-.74,24c-.25,7.17-.5,14.35-.5,21.52,0,12.62.25,41.82.25,41.82l-1.49,1.24H590.62l-1.24-1.24Z"/><path class="cls-2" d="M669.3,181.87a38,38,0,0,0,7.67-.75,27.61,27.61,0,0,1-17.57,5.69H654c-3.71,0-8.66-1.23-11.38-4.2-6.19-5.45-10.89-11.63-13.12-20-2.72-13.12-3.46-25-4.2-38.85v-2c0-8.41.74-47.51.74-55.67,0-12.13,1.48-29.2,9.15-41.33-3.46,10.64-4.2,22.52-4.2,31.43,0,4,0,15.59-.25,27.46s-.5,24-.5,28.21v2.23c.75,14.6,1.74,27.22,4.21,39.84,2.48,9.4,7.67,16.33,14.85,22.51l-.5-.25c3.71,4,10.15,5.7,15.1,5.7Zm-5.44-5c-3.71,0-8.66-1.24-11.39-4.21-6.18-5.44-10.88-11.63-13.11-20-2.72-13.12-3.46-25-4.21-38.85v-2c0-8.41.75-47.51.75-55.67,0-20.54,4.45-55.68,35.38-55.68,20.78,0,29.2,11.88,32.17,26.48.74,1.24,1.23,5.44,1.23,6.19v90.31L703.45,143c-1.49,2.72-1.49,6.18-3,8.91-6.93,14.1-13.86,25-31.18,25Zm6.68-22.27C677,154.65,679,148,679,143c0-3,.74-16.09.74-18.81,0-7.67.75-44.54.75-52.7V31.67c0-4.2-3.47-8.91-8.42-8.91h-.74c-1.24,0-4.7,1.49-4.7,1.49-.74,0-3.47,3.22-4.21,4a7.45,7.45,0,0,0-.74,2.22c0,4.21-.74,21.53-.74,25.74v91.05C661.63,151.93,666.58,154.65,670.54,154.65Zm-4-120.5V30.93l.49-.5c.5-.49.5-1.23.25-1.23a33.69,33.69,0,0,1,4-1.49,4,4,0,0,1,4.21,4V71.51c0,4-.25,16.58-.5,27-.25,11.13-.25,22-.25,25.73,0,1.24,0,5-.24,8.91s-.5,8.41-.5,9.9c0,2.72-.74,6.68-3.46,6.68h-1.49c.25-5.2.74-13.36.74-15.59,0-7.67.75-44.54.75-52.7V41.57A9.4,9.4,0,0,0,666.58,34.15Z"/></g></g></g></g></svg>