<svg xmlns="http://www.w3.org/2000/svg" width="451.93" height="440.632" viewBox="0 0 451.93 440.632">
  <path id="Icon_simple-adobeillustrator" data-name="Icon simple-adobeillustrator" d="M0,.45V441.081H451.93V.45ZM18.83,19.28H433.1V422.251H18.83ZM156.763,249.953l-14.914,56.454c-.32,1.563-.942,1.921-2.787,1.921H111.419c-1.883,0-2.165-.621-1.883-2.787l53.478-187.268c.942-3.389,1.544-6.365,1.845-15.686,0-1.243.621-1.883,1.563-1.883h39.469c1.243,0,1.883.339,2.184,1.883l59.975,203.255c.32,1.563,0,2.486-1.563,2.486h-31.07c-1.563,0-2.486-.377-2.787-1.619L217.1,249.934H156.707Zm52.5-30.6c-5.273-20.826-17.7-66.434-22.371-88.5h-.32c-4.03,22.032-13.972,59.316-21.749,88.5ZM294,114.694c0-12.108,8.38-19.264,19.264-19.264,11.487,0,19.263,7.758,19.263,19.264,0,12.428-8.1,19.263-19.584,19.263-11.3,0-19.019-6.835-19.019-19.263Zm2.109,42.82c0-1.506.621-2.071,2.184-2.071h29.564c1.657,0,2.26.621,2.26,2.184V306.293c0,1.563-.3,2.184-2.165,2.184H298.763c-1.883,0-2.5-.942-2.5-2.448V157.5Z" transform="translate(0 -0.45)" fill="#ff9d00"/>
</svg>
