<svg xmlns="http://www.w3.org/2000/svg" width="395.495" height="385.607" viewBox="0 0 395.495 385.607">
  <path id="Icon_simple-adobelightroomcc" data-name="Icon simple-adobelightroomcc" d="M325.459.45H70.036A69.977,69.977,0,0,0,0,70.486V316.022a69.977,69.977,0,0,0,70.036,70.036H325.459a69.977,69.977,0,0,0,70.036-70.036V70.486A69.977,69.977,0,0,0,325.459.45ZM378.851,309.6A59.7,59.7,0,0,1,319.2,369.579H76.3A59.955,59.955,0,0,1,16.479,309.6V76.912A59.955,59.955,0,0,1,76.3,16.929H319.033a59.819,59.819,0,0,1,59.819,59.819ZM109.585,269.551c-1.977,0-2.472-.824-2.472-2.472V89.931c0-1.318.494-2.142,1.977-2.142h26.037c1.318,0,1.648.494,1.648,1.977v152.6h67.893c1.318,0,1.813.494,1.483,1.977l-4.12,23.4a2.337,2.337,0,0,1-2.472,1.977H109.585v-.165ZM233.177,162.768c0-1.977,0-6.756-.824-15.985a1.891,1.891,0,0,1,1.318-2.142c10.052-4.12,33.947-11.37,60.643-11.37,1.318,0,1.977.33,1.977,1.648v23.73c0,1.318-.494,1.648-1.977,1.648-10.382-.494-25.707.824-31.475,3.3V267.574c0,1.318-.494,1.977-1.977,1.977H234.99c-1.318,0-1.977-.494-1.977-1.977V162.768Z" transform="translate(0 -0.45)" fill="#4d6fa7"/>
</svg>
