<svg xmlns="http://www.w3.org/2000/svg" width="432.577" height="421.763" viewBox="0 0 432.577 421.763">
  <path id="Icon_simple-adobexd" data-name="Icon simple-adobexd" d="M355.975.45H76.6A76.538,76.538,0,0,0,0,77.052V345.611a76.538,76.538,0,0,0,76.6,76.6H355.975a76.538,76.538,0,0,0,76.6-76.6V77.052A76.538,76.538,0,0,0,355.975.45Zm58.4,338.131a65.3,65.3,0,0,1-65.247,65.608H83.451a65.538,65.538,0,0,1-65.427-65.427V83.9A65.538,65.538,0,0,1,83.451,18.474H348.946A65.427,65.427,0,0,1,414.373,83.9ZM171.048,197.813l50.467,96.969c.9,1.442.361,2.884-1.081,2.884H189.072a3.537,3.537,0,0,1-3.785-2.343c-11.535-23.792-23.251-47.584-35.327-73.178H149.6c-10.814,24.152-22.71,49.566-34.246,73.358a3.461,3.461,0,0,1-3.244,1.983H82.37c-1.8,0-1.983-1.442-1.081-2.523l49.386-94.086L82.911,105.711a1.457,1.457,0,0,1,1.081-2.523h31c1.8,0,2.523.36,3.244,1.983,11.355,23.792,22.891,48.3,33.7,72.276h.36c10.454-23.792,21.989-48.485,33.164-72.1.9-1.442,1.442-2.343,3.244-2.343h29.019c1.442,0,1.983,1.081,1.081,2.523Zm59.3,29.379c0-42,27.937-74.8,72.276-74.8a79.929,79.929,0,0,1,9.373.36V104.99a1.806,1.806,0,0,1,1.8-1.8h28.478c1.442,0,1.8.541,1.8,1.442V270.09a128.379,128.379,0,0,0,.9,17.664c0,1.081-.361,1.442-1.442,1.983A107.363,107.363,0,0,1,297.4,300.19C258.285,300.37,230.347,276.218,230.347,227.193ZM312,181.051a27.259,27.259,0,0,0-10.454-1.8c-22.71,0-38.572,17.483-38.572,46.5,0,33.164,16.222,46.5,36.589,46.5,4.326,0,9.012-.541,12.437-1.983V181.051Z" transform="translate(0 -0.45)" fill="#ff58d9"/>
</svg>
