<svg id="コンポーネント_5_1" data-name="コンポーネント 5 – 1" xmlns="http://www.w3.org/2000/svg" width="454" height="321" viewBox="0 0 454 321">
  <g id="長方形_5" data-name="長方形 5" transform="translate(0 44)" fill="none" stroke="#fff" stroke-width="5">
    <rect width="454" height="277" rx="30" stroke="none"/>
    <rect x="2.5" y="2.5" width="449" height="272" rx="27.5" fill="none"/>
  </g>
  <g id="楕円形_2" data-name="楕円形 2" transform="translate(149 104)" fill="none" stroke="#fff" stroke-width="5">
    <circle cx="78.5" cy="78.5" r="78.5" stroke="none"/>
    <circle cx="78.5" cy="78.5" r="76" fill="none"/>
  </g>
  <g id="長方形_11" data-name="長方形 11" transform="translate(33)" fill="none" stroke="#fff" stroke-width="5">
    <path d="M30,0H95a30,30,0,0,1,30,30V49a0,0,0,0,1,0,0H0a0,0,0,0,1,0,0V30A30,30,0,0,1,30,0Z" stroke="none"/>
    <path d="M30,2.5H95A27.5,27.5,0,0,1,122.5,30V44a2.5,2.5,0,0,1-2.5,2.5H5A2.5,2.5,0,0,1,2.5,44V30A27.5,27.5,0,0,1,30,2.5Z" fill="none"/>
  </g>
  <g id="長方形_12" data-name="長方形 12" transform="translate(326 69)" fill="none" stroke="#fff" stroke-width="5">
    <rect width="100" height="49" rx="24.5" stroke="none"/>
    <rect x="2.5" y="2.5" width="95" height="44" rx="22" fill="none"/>
  </g>
</svg>
