<svg id="コンポーネント_4_1" data-name="コンポーネント 4 – 1" xmlns="http://www.w3.org/2000/svg" xmlns:xlink="http://www.w3.org/1999/xlink" width="541" height="386" viewBox="0 0 541 386">
  <defs>
    <clipPath id="clip-path">
      <rect id="長方形_7" data-name="長方形 7" width="271" height="176" transform="translate(0 0)" fill="#fff" stroke="#707070" stroke-width="1"/>
    </clipPath>
    <clipPath id="clip-path-2">
      <rect id="長方形_8" data-name="長方形 8" width="270" height="176" transform="translate(0.5 0)" fill="#fff" stroke="#707070" stroke-width="1"/>
    </clipPath>
  </defs>
  <g id="長方形_6" data-name="長方形 6" transform="translate(93)" fill="none" stroke="#fff" stroke-width="5">
    <rect width="356" height="221" rx="10" stroke="none"/>
    <rect x="2.5" y="2.5" width="351" height="216" rx="7.5" fill="none"/>
  </g>
  <g id="コンポーネント_2_1" data-name="コンポーネント 2 – 1" transform="translate(0 210)">
    <g id="マスクグループ_2" data-name="マスクグループ 2" transform="translate(0 0)" clip-path="url(#clip-path)">
      <g id="パス_1" data-name="パス 1" transform="translate(117.033 22)" fill="none">
        <path d="M-12.3,0H322.281c7.451,0,13.491,4.282,13.491,9.565l49.918,92.3c0,5.283-8.739,11.478-16.19,11.478H-62.22c-7.451,0-20.485.192-16.19-11.478l52.616-92.3C-21.651,2.238-19.753,0-12.3,0Z" stroke="none"/>
        <path d="M -12.30215454101562 4.999969482421875 C -15.4981689453125 4.999969482421875 -16.56683349609375 5.481719970703125 -17.24566650390625 6.002410888671875 C -18.412109375 6.89703369140625 -19.66714477539062 8.888473510742188 -21.4407958984375 12.02584838867188 L -21.44515991210938 12.03359222412109 L -21.4495849609375 12.04134368896484 L -73.84405517578125 103.9571228027344 C -74.410400390625 105.6437377929688 -74.266357421875 106.4177474975586 -74.15371704101562 106.5792236328125 C -73.94241333007812 106.8820953369141 -72.97647094726562 107.5017242431641 -70.69622802734375 107.9026565551758 C -68.16326904296875 108.348030090332 -65.02572631835938 108.348030090332 -62.94952392578125 108.348030090332 L -62.57867431640625 108.3479080200195 L -62.2198486328125 108.3478469848633 L 369.5009155273438 108.3478469848633 C 371.9127807617188 108.3478469848633 374.92822265625 107.295036315918 377.3704833984375 105.6002807617188 C 378.4932861328125 104.821159362793 379.4156494140625 103.9657821655273 380.0380249023438 103.1266555786133 C 380.1868286132812 102.9259872436523 380.3035278320312 102.7455596923828 380.3944702148438 102.5875549316406 L 331.3747253417969 11.94365692138672 L 330.7727661132812 10.83059692382812 L 330.7727661132812 9.565223693847656 C 330.7727661132812 8.3216552734375 329.483642578125 7.273406982421875 328.9294128417969 6.880409240722656 C 327.2437744140625 5.685348510742188 324.8207092285156 4.999969482421875 322.2814636230469 4.999969482421875 L -12.30215454101562 4.999969482421875 M -12.30215454101562 -3.0517578125e-05 L 322.2814636230469 -3.0517578125e-05 C 329.7324523925781 -3.0517578125e-05 335.7727661132812 4.282470703125 335.7727661132812 9.565223693847656 L 385.6904602050781 101.8695373535156 C 385.6904602050781 107.1522827148438 376.951904296875 113.3478469848633 369.5009155273438 113.3478469848633 L -62.2198486328125 113.3478469848633 C -62.45724487304688 113.3478469848633 -62.70156860351562 113.3480453491211 -62.94955444335938 113.3480453491211 C -70.48504638671875 113.3480453491211 -82.56768798828125 113.1683883666992 -78.40933227539062 101.8695373535156 L -25.79339599609375 9.565223693847656 C -21.65127563476562 2.23822021484375 -19.753173828125 -3.0517578125e-05 -12.30215454101562 -3.0517578125e-05 Z" stroke="none" fill="#fff"/>
      </g>
    </g>
    <g id="マスクグループ_3" data-name="マスクグループ 3" transform="translate(270.5 0)" clip-path="url(#clip-path-2)">
      <g id="パス_2" data-name="パス 2" transform="translate(-152.966 22)" fill="none">
        <path d="M318.735,0H-15.849C-23.3,0-29.34,4.282-29.34,9.565l-49.918,92.3c0,5.283,8.738,11.478,16.19,11.478H368.652c7.451,0,20.485.192,16.189-11.478l-52.616-92.3C328.084,2.238,326.186,0,318.735,0Z" stroke="none"/>
        <path d="M -15.84890747070312 4.999969482421875 C -18.38821411132812 4.999969482421875 -20.811279296875 5.685348510742188 -22.496826171875 6.880409240722656 C -23.05108642578125 7.273406982421875 -24.3402099609375 8.32159423828125 -24.3402099609375 9.565223693847656 L -24.3402099609375 10.83059692382812 L -24.942138671875 11.94365692138672 L -73.96188354492188 102.5875549316406 C -73.8709716796875 102.7455596923828 -73.7542724609375 102.9259872436523 -73.60546875 103.1266555786133 C -72.983154296875 103.9657821655273 -72.06069946289062 104.8210983276367 -70.93795776367188 105.6002197265625 C -68.49569702148438 107.295036315918 -65.48025512695312 108.3478469848633 -63.06838989257812 108.3478469848633 L 368.6524047851562 108.3478469848633 L 369.01123046875 108.3479080200195 L 369.3821105957031 108.348030090332 C 371.4582824707031 108.348030090332 374.5958557128906 108.348030090332 377.1287841796875 107.9026565551758 C 379.4090576171875 107.5017242431641 380.3749694824219 106.8820953369141 380.5863037109375 106.5792236328125 C 380.6988830566406 106.4177474975586 380.8428955078125 105.6437683105469 380.2765502929688 103.9570999145508 L 327.8821105957031 12.04134368896484 L 327.8776550292969 12.03359222412109 L 327.873291015625 12.02584838867188 C 326.0996704101562 8.888404846191406 324.8446044921875 6.89703369140625 323.6781616210938 6.002342224121094 C 322.9993591308594 5.481719970703125 321.9307250976562 4.999969482421875 318.7347412109375 4.999969482421875 L -15.84890747070312 4.999969482421875 M -15.84890747070312 -3.0517578125e-05 L 318.7347412109375 -3.0517578125e-05 C 326.1857299804688 -3.0517578125e-05 328.0838012695312 2.23822021484375 332.2259216308594 9.565223693847656 L 384.8418579101562 101.8695373535156 C 389.000244140625 113.1683883666992 376.9176025390625 113.3480453491211 369.3821411132812 113.3480453491211 C 369.1341552734375 113.3480453491211 368.8898010253906 113.3478469848633 368.6524047851562 113.3478469848633 L -63.06838989257812 113.3478469848633 C -70.5194091796875 113.3478469848633 -79.25790405273438 107.1522827148438 -79.25790405273438 101.8695373535156 L -29.3402099609375 9.565223693847656 C -29.3402099609375 4.282470703125 -23.29995727539062 -3.0517578125e-05 -15.84890747070312 -3.0517578125e-05 Z" stroke="none" fill="#fff"/>
      </g>
    </g>
  </g>
  <g id="長方形_10" data-name="長方形 10" transform="translate(111 17)" fill="none" stroke="#fff" stroke-width="5">
    <rect width="320" height="188" rx="10" stroke="none"/>
    <rect x="2.5" y="2.5" width="315" height="183" rx="7.5" fill="none"/>
  </g>
</svg>
