<svg id="コンポーネント_8_1" data-name="コンポーネント 8 – 1" xmlns="http://www.w3.org/2000/svg" width="199" height="199" viewBox="0 0 199 199">
  <circle id="楕円形_5" data-name="楕円形 5" cx="99.5" cy="99.5" r="99.5" fill="#333"/>
  <g id="コンポーネント_7_1" data-name="コンポーネント 7 – 1" transform="translate(38.462 35.954)">
    <circle id="楕円形_6" data-name="楕円形 6" cx="23" cy="23" r="23" transform="translate(-0.462 0.046)" fill="#fff"/>
    <ellipse id="楕円形_7" data-name="楕円形 7" cx="21.5" cy="42.5" rx="21.5" ry="42.5" transform="translate(-0.462 28.046)" fill="#fff"/>
    <path id="パス_4" data-name="パス 4" d="M32.01,0C43.845,0,57.7,31.6,57.7,63.982s-9.593,58.63-21.428,58.63c-8.485,0-19.742-22.3-25.4-45.731C8.669,67.768,0,64.945,0,55.781c0-12.207,11.534-20,16.739-26.749C17.623,19.807,24.637,0,32.01,0Z" transform="matrix(0.087, 0.996, -0.996, 0.087, 130.906, 59.362)" fill="#fff"/>
    <ellipse id="楕円形_8" data-name="楕円形 8" cx="5.042" cy="11.134" rx="5.042" ry="11.134" transform="matrix(0.848, 0.53, -0.53, 0.848, 44.554, 15.234)" fill="#fff"/>
  </g>
</svg>
